<svg xmlns="http://www.w3.org/2000/svg" viewBox="0 0 48 48">
  <path d="M14.72,4.97 Q15.78,4.44 16.84,4.97 L20.18,6.61 Q21.24,7.14 21.24,8.33 L21.24,11.35 Q21.24,12.54 20.18,13.07 L16.84,14.71 Q15.78,15.24 14.72,14.71 L11.38,13.07 Q10.32,12.54 10.32,11.35 L10.32,8.33 Q10.32,7.14 11.38,6.61 L14.72,4.97 Z" fill="#f2b408" />
  <path d="M31.35,1.52 Q32.94,0.72 34.53,1.52 L39.45,3.97 Q41.04,4.77 41.04,6.55 L41.04,11.09 Q41.04,12.87 39.45,13.67 L34.53,16.12 Q32.94,16.92 31.35,16.12 L26.43,13.67 Q24.84,12.87 24.84,11.09 L24.84,6.55 Q24.84,4.77 26.43,3.97 L31.35,1.52 Z" fill="#ffc604" />
  <path d="M37.77,16.46 Q38.52,16.08 39.27,16.46 L41.61,17.65 Q42.36,18.03 42.36,18.87 L42.36,21.09 Q42.36,21.93 41.61,22.31 L39.27,23.50 Q38.52,23.88 37.77,23.50 L35.43,22.31 Q34.68,21.93 34.68,21.09 L34.68,18.87 Q34.68,18.03 35.43,17.65 L37.77,16.46 Z" fill="#f2b408" />
  <path d="M7.58,20.65 Q8.34,20.28 9.10,20.65 L11.48,21.83 Q12.24,22.20 12.24,23.04 L12.24,25.20 Q12.24,26.04 11.48,26.41 L9.10,27.59 Q8.34,27.96 7.58,27.59 L5.20,26.41 Q4.44,26.04 4.44,25.20 L4.44,23.04 Q4.44,22.20 5.20,21.83 L7.58,20.65 Z" fill="#ffc604" />
  <path d="M20.66,15.20 Q22.50,14.28 24.34,15.20 L30.08,18.04 Q31.92,18.96 31.92,21.02 L31.92,26.26 Q31.92,28.32 30.08,29.24 L24.34,32.08 Q22.50,33.00 20.66,32.08 L14.92,29.24 Q13.08,28.32 13.08,26.26 L13.08,21.02 Q13.08,18.96 14.92,18.04 L20.66,15.20 Z" fill="#f2b408" />
  <path d="M21.26,35.70 Q22.32,35.16 23.38,35.70 L26.66,37.35 Q27.72,37.89 27.72,39.08 L27.72,42.16 Q27.72,43.35 26.66,43.89 L23.38,45.54 Q22.32,46.08 21.26,45.54 L17.98,43.89 Q16.92,43.35 16.92,42.16 L16.92,39.08 Q16.92,37.89 17.98,37.35 L21.26,35.70 Z" fill="#ffc604" />
  <path d="M36.70,32.98 Q38.10,32.28 39.50,32.98 L43.84,35.15 Q45.24,35.85 45.24,37.42 L45.24,41.42 Q45.24,42.99 43.84,43.69 L39.50,45.86 Q38.10,46.56 36.70,45.86 L32.36,43.69 Q30.96,42.99 30.96,41.42 L30.96,37.42 Q30.96,35.85 32.36,35.15 L36.70,32.98 Z" fill="#f2b408" />
</svg>
